<?xml version="1.0" standalone="no"?>
<svg xmlns="http://www.w3.org/2000/svg" width="48" height="48"><rect width="48" height="48" opacity="0"></rect><g><path d="M24.34 35.76Q24.77 35.33 24.77 34.7Q24.77 34.08 24.34 33.65L14.64 24L24.34 14.35Q24.77 13.92 24.77 13.3Q24.77 12.67 24.34 12.24Q23.9 11.81 23.28 11.81Q22.66 11.81 22.22 12.24L12.19 22.22Q11.42 22.99 11.42 24Q11.42 25.01 12.19 25.78L22.22 35.76Q22.66 36.19 23.26 36.22Q23.86 36.24 24.34 35.76ZM36.05 35.76Q36.48 35.33 36.48 34.7Q36.48 34.08 36.05 33.65L26.4 24L36.1 14.35Q36.53 13.92 36.53 13.3Q36.53 12.67 36.1 12.24Q35.66 11.81 35.04 11.81Q34.42 11.81 33.98 12.24L23.95 22.22Q23.18 22.99 23.18 24Q23.18 25.01 23.95 25.78L33.94 35.76Q34.37 36.19 34.97 36.22Q35.57 36.24 36.05 35.76Z" fill="rgba(0,0,0,0.9019607843137255)"></path></g></svg>